<?xml version="1.0" encoding="UTF-8"?>
<svg id="Layer_2" data-name="Layer 2" xmlns="http://www.w3.org/2000/svg" viewBox="0 0 238.25 14.34">
  <g id="Layer_1-2" data-name="Layer 1">
    <path d="m1.5,12.84C7.01,12.84,7.01,1.5,12.53,1.5s5.51,11.34,11.02,11.34S29.06,1.5,34.58,1.5s5.52,11.34,11.03,11.34h28.01c5.51,0,5.51-11.34,11.03-11.34s5.51,11.34,11.02,11.34,5.52-11.34,11.03-11.34,5.52,11.34,11.03,11.34h27.53c5.72,0,5.72-11.34,11.43-11.34s5.72,11.34,11.43,11.34,5.72-11.34,11.43-11.34,5.72,11.34,11.43,11.34,5.72-11.34,11.44-11.34,5.72,11.34,11.43,11.34,5.72-11.34,11.44-11.34,5.72,11.34,11.44,11.34" style="fill: none; stroke: #fff; stroke-linecap: round; stroke-miterlimit: 10; stroke-width: 3px;"/>
  </g>
</svg>