<?xml version="1.0" encoding="UTF-8"?>
<svg id="Layer_2" data-name="Layer 2" xmlns="http://www.w3.org/2000/svg" viewBox="0 0 238.59 14.34">
  <g id="Layer_1-2" data-name="Layer 1">
    <path d="m1.5,1.5c6.93,0,6.93,11.34,13.86,11.34S22.28,1.5,29.21,1.5s6.93,11.34,13.86,11.34S49.99,1.5,56.92,1.5s6.93,11.34,13.86,11.34,6.93-11.34,13.86-11.34,6.93,11.34,13.86,11.34,6.93-11.34,13.86-11.34,6.93,11.34,13.86,11.34,6.93-11.34,13.86-11.34,6.93,11.34,13.86,11.34,6.93-11.34,13.85-11.34,6.93,11.34,13.86,11.34,6.93-11.34,13.86-11.34,6.93,11.34,13.86,11.34,6.93-11.34,13.87-11.34,6.93,11.34,13.87,11.34" style="fill: none; stroke: #1d1d1b; stroke-linecap: round; stroke-miterlimit: 10; stroke-width: 3px;"/>
  </g>
</svg>