<?xml version="1.0" encoding="UTF-8"?>
<svg id="Layer_2" data-name="Layer 2" xmlns="http://www.w3.org/2000/svg" viewBox="0 0 238.53 25.68">
  <g id="Layer_1-2" data-name="Layer 1">
    <path d="m1.5,1.5c7.36,0,7.36,22.68,14.72,22.68S23.58,1.5,30.94,1.5s7.36,22.68,14.72,22.68S53.02,1.5,60.37,1.5s7.36,22.68,14.72,22.68S82.45,1.5,89.81,1.5s7.36,22.68,14.72,22.68S111.89,1.5,119.25,1.5s7.36,22.68,14.72,22.68,7.36-22.68,14.72-22.68,7.36,22.68,14.72,22.68,7.36-22.68,14.72-22.68,7.36,22.68,14.72,22.68,7.36-22.68,14.72-22.68,7.36,22.68,14.73,22.68,7.36-22.68,14.73-22.68" style="fill: none; stroke: #1d1d1b; stroke-linecap: round; stroke-miterlimit: 10; stroke-width: 3px;"/>
  </g>
</svg>