<?xml version="1.0" encoding="UTF-8"?>
<svg id="Layer_2" data-name="Layer 2" xmlns="http://www.w3.org/2000/svg" viewBox="0 0 238.24 14.34">
  <g id="Layer_1-2" data-name="Layer 1">
    <path d="m1.5,12.84c3.86,0,3.86-11.34,7.71-11.34s3.86,11.34,7.71,11.34S20.78,1.5,24.64,1.5s3.86,11.34,7.71,11.34,3.86-11.34,7.72-11.34,3.86,11.34,7.72,11.34h30.04c3.86,0,3.86-11.34,7.71-11.34s3.86,11.34,7.71,11.34,3.86-11.34,7.72-11.34,3.86,11.34,7.71,11.34,3.86-11.34,7.72-11.34,3.86,11.34,7.72,11.34h29.23c4.17,0,4.17-11.34,8.34-11.34s4.17,11.34,8.34,11.34,4.17-11.34,8.33-11.34,4.17,11.34,8.33,11.34,4.17-11.34,8.33-11.34,4.17,11.34,8.34,11.34,4.17-11.34,8.34-11.34,4.17,11.34,8.34,11.34,4.17-11.34,8.34-11.34,4.17,11.34,8.34,11.34" style="fill: none; stroke: #1d1d1b; stroke-linecap: round; stroke-miterlimit: 10; stroke-width: 3px;"/>
  </g>
</svg>