<?xml version="1.0" encoding="UTF-8"?>
<svg id="Layer_2" data-name="Layer 2" xmlns="http://www.w3.org/2000/svg" viewBox="0 0 238.86 20.01">
  <g id="Layer_1-2" data-name="Layer 1">
    <path d="m1.5,18.51c4.91,0,4.91-4.67,9.82-4.67s4.91,4.67,9.83,4.67,4.91-5.67,9.83-5.67,4.91,5.67,9.83,5.67,4.92-7.67,9.83-7.67,4.92,7.67,9.83,7.67h0c4.91,0,4.91-9.34,9.82-9.34s4.91,9.34,9.83,9.34,4.91-11.34,9.83-11.34,4.91,11.34,9.83,11.34,4.92-13.34,9.83-13.34,4.92,13.34,9.83,13.34h44.47c6.12,0,6.12-17.01,12.25-17.01s6.12,17.01,12.25,17.01,6.12-17.01,12.24-17.01,6.12,17.01,12.24,17.01,6.12-17.01,12.24-17.01,6.12,17.01,12.24,17.01" style="fill: none; stroke: #1d1d1b; stroke-linecap: round; stroke-miterlimit: 10; stroke-width: 3px;"/>
  </g>
</svg>