<?xml version="1.0" encoding="UTF-8"?>
<svg xmlns="http://www.w3.org/2000/svg" viewBox="0 0 36.35 160.87">
  <g style="isolation: isolate;">
    <g id="Layer_2" data-name="Layer 2">
      <g id="Layer_1-2" data-name="Layer 1">
        <line x1="5.49" y1="110.67" x2="30.86" y2="110.67" style="fill: none; mix-blend-mode: darken; stroke: #fff59b; stroke-linecap: square; stroke-miterlimit: 10; stroke-width: 2.57px;"/>
        <line x1="5.49" y1="110.67" x2="30.86" y2="110.67" style="fill: none; stroke: #fff59b; stroke-linecap: square; stroke-miterlimit: 10; stroke-width: 2px;"/>
        <path d="m18.57,159.59h0c6.79,0,12.29-5.5,12.29-12.29v-36.64c9.56-13.77-.16-34.83-.16-34.83,9.4-18.14.65-35.64.65-35.64,4.54-6.48,2.92-19.86,2.92-19.86,0-10.53-7.21-19.06-16.09-19.06S2.08,9.82,2.08,20.34c0,0-1.61,13.38,2.92,19.86,0,0-8.75,17.5.65,35.64,0,0-9.72,21.06-.16,34.83v36.64c0,6.79,5.5,12.29,12.29,12.29h.8Z" style="fill: none; stroke: #fff59b; stroke-linecap: square; stroke-miterlimit: 10; stroke-width: 2px;"/>
        <path d="m18.57,159.59h0c6.79,0,12.29-5.5,12.29-12.29v-36.64c9.56-13.77-.16-34.83-.16-34.83,9.4-18.14.65-35.64.65-35.64,4.54-6.48,2.92-19.86,2.92-19.86,0-10.53-7.21-19.06-16.09-19.06S2.08,9.82,2.08,20.34c0,0-1.61,13.38,2.92,19.86,0,0-8.75,17.5.65,35.64,0,0-9.72,21.06-.16,34.83v36.64c0,6.79,5.5,12.29,12.29,12.29h.8Z" style="fill: none; mix-blend-mode: darken; stroke: #fff59b; stroke-linecap: square; stroke-miterlimit: 10; stroke-width: 2.57px;"/>
        <circle cx="18.17" cy="130.16" r="4.15" transform="translate(-113.22 127.25) rotate(-80.78)" style="fill: #fff59b; stroke-width: 0px;"/>
        <circle cx="18.17" cy="130.16" r="4.15" transform="translate(-113.22 127.25) rotate(-80.78)" style="fill: none; mix-blend-mode: darken; stroke: #fff59b; stroke-miterlimit: 10; stroke-width: .57px;"/>
        <circle cx="18.17" cy="141.52" r="4.15" transform="translate(-124.43 136.79) rotate(-80.78)" style="fill: #fff59b; stroke-width: 0px;"/>
        <circle cx="18.17" cy="141.52" r="4.15" transform="translate(-124.43 136.79) rotate(-80.78)" style="fill: none; mix-blend-mode: darken; stroke: #fff59b; stroke-miterlimit: 10; stroke-width: .57px;"/>
        <line x1="5" y1="40.2" x2="31.34" y2="40.2" style="fill: none; mix-blend-mode: darken; stroke: #fff59b; stroke-linecap: square; stroke-miterlimit: 10; stroke-width: 2.57px;"/>
        <line x1="5" y1="40.2" x2="31.34" y2="40.2" style="fill: none; stroke: #fff59b; stroke-linecap: square; stroke-miterlimit: 10; stroke-width: 2px;"/>
        <line x1="5.65" y1="75.84" x2="30.7" y2="75.84" style="fill: none; mix-blend-mode: darken; stroke: #fff59b; stroke-linecap: square; stroke-miterlimit: 10; stroke-width: 2.57px;"/>
        <line x1="5.65" y1="75.84" x2="30.7" y2="75.84" style="fill: none; stroke: #fff59b; stroke-linecap: square; stroke-miterlimit: 10; stroke-width: 2px;"/>
      </g>
    </g>
  </g>
</svg>