<?xml version="1.0" encoding="UTF-8"?>
<svg id="Layer_2" data-name="Layer 2" xmlns="http://www.w3.org/2000/svg" viewBox="0 0 238.79 41.87">
  <g id="Layer_1-2" data-name="Layer 1">
    <path d="m1.5,40.37c5.71,0,5.71-11.34,11.42-11.34s5.71,11.34,11.42,11.34,5.71-16.52,11.42-16.52,5.71,16.52,11.42,16.52,5.71-23.75,11.41-23.75,5.71,23.75,11.42,23.75,5.71-31.87,11.42-31.87,5.71,31.87,11.42,31.87S98.55,1.5,104.26,1.5s5.71,38.87,11.42,38.87h4.87c5.71,0,5.71-11.34,11.42-11.34s5.71,11.34,11.42,11.34,5.71-16.52,11.42-16.52,5.71,16.52,11.42,16.52,5.71-23.75,11.41-23.75,5.71,23.75,11.42,23.75,5.71-31.87,11.42-31.87,5.71,31.87,11.42,31.87S217.6,1.5,223.32,1.5s5.71,38.87,11.42,38.87h2.55" style="fill: none; stroke: #fff; stroke-linecap: round; stroke-miterlimit: 10; stroke-width: 3px;"/>
  </g>
</svg>